<?xml version="1.0" standalone="no"?>
<!DOCTYPE svg PUBLIC "-//W3C//DTD SVG 20010904//EN"
 "http://www.w3.org/TR/2001/REC-SVG-20010904/DTD/svg10.dtd">
<svg version="1.0" xmlns="http://www.w3.org/2000/svg"
 width="225.000000pt" height="225.000000pt" viewBox="0 0 225.000000 225.000000"
 preserveAspectRatio="xMidYMid meet">

<g transform="translate(0.000000,225.000000) scale(0.100000,-0.100000)"
fill="#000000" stroke="none">
<path d="M1077 1922 c-15 -17 -17 -61 -17 -424 0 -380 1 -406 18 -421 25 -22
75 -21 95 1 15 17 17 61 17 424 0 380 -1 406 -18 421 -25 22 -75 21 -95 -1z"/>
<path d="M508 1698 c-146 -159 -221 -354 -221 -578 0 -573 562 -975 1108 -791
267 90 473 312 546 591 43 165 25 386 -45 544 -31 70 -101 176 -154 234 -48
51 -89 57 -121 16 -31 -39 -26 -56 28 -120 69 -80 117 -165 148 -259 23 -70
26 -96 26 -210 0 -114 -3 -140 -26 -210 -121 -367 -501 -581 -865 -489 -178
45 -356 184 -441 344 -146 274 -107 583 103 818 31 35 56 71 56 81 0 10 -9 30
-21 45 -32 41 -73 35 -121 -16z"/>
</g>
</svg>
